<svg width="437" height="128" viewBox="0 0 437 128" fill="none" xmlns="http://www.w3.org/2000/svg">
<path d="M15.2027 70.4C15.2027 74.1547 16.013 77.44 17.6338 80.256C19.2545 82.9867 21.4297 85.1627 24.1593 86.784C26.9743 88.4053 30.0877 89.216 33.4998 89.216C36.3147 89.216 39.0017 88.7893 41.5608 87.936C44.1198 87.0827 46.3803 85.888 48.3422 84.352C50.3042 82.816 51.7543 81.1093 52.6926 79.232V94.464C50.6454 96.512 47.8731 98.1333 44.3757 99.328C40.8784 100.523 37.0398 101.12 32.86 101.12C26.8036 101.12 21.3444 99.84 16.4822 97.28C11.7053 94.6347 7.90941 91.008 5.09446 86.4C2.36482 81.7067 1 76.3733 1 70.4C1 64.3413 2.36482 59.008 5.09446 54.4C7.90941 49.792 11.7053 46.208 16.4822 43.648C21.3444 41.0027 26.8036 39.68 32.86 39.68C37.0398 39.68 40.8784 40.2773 44.3757 41.472C47.8731 42.6667 50.6454 44.288 52.6926 46.336V61.568C51.7543 59.6053 50.2615 57.8987 48.2143 56.448C46.2523 54.912 43.9919 53.7173 41.4328 52.864C38.8738 52.0107 36.2294 51.584 33.4998 51.584C30.0877 51.584 26.9743 52.3947 24.1593 54.016C21.4297 55.6373 19.2545 57.856 17.6338 60.672C16.013 63.488 15.2027 66.7307 15.2027 70.4Z" fill="currentColor"/>
<path d="M74.1086 81.536C74.1086 83.4987 74.5777 85.2053 75.516 86.656C76.4543 88.0213 77.7339 89.0453 79.3546 89.728C81.0606 90.4107 82.9799 90.752 85.1124 90.752C87.8421 90.752 90.3158 90.1973 92.5336 89.088C94.8368 87.9787 96.6708 86.3573 98.0356 84.224C99.4857 82.0053 100.211 79.4453 100.211 76.544L102.258 84.224C102.258 87.9787 101.149 91.136 98.9312 93.696C96.7987 96.1707 94.0691 98.048 90.7423 99.328C87.5009 100.523 84.1741 101.12 80.7621 101.12C77.0941 101.12 73.6821 100.395 70.5259 98.944C67.3698 97.4933 64.8534 95.36 62.9767 92.544C61.1001 89.728 60.1618 86.3147 60.1618 82.304C60.1618 76.5867 62.1664 72.064 66.1755 68.736C70.1847 65.3227 75.8572 63.616 83.1931 63.616C87.117 63.616 90.4864 64.0427 93.3014 64.896C96.2016 65.7493 98.59 66.7733 100.467 67.968C102.343 69.0773 103.665 70.1013 104.433 71.04V78.08C101.789 76.2027 98.9739 74.8373 95.9883 73.984C93.0028 73.1307 89.8466 72.704 86.5199 72.704C83.6197 72.704 81.2739 73.088 79.4825 73.856C77.6912 74.5387 76.3264 75.52 75.3881 76.8C74.5351 78.08 74.1086 79.6587 74.1086 81.536ZM69.7582 56.32L64.1283 46.592C66.7726 44.9707 70.1847 43.392 74.3645 41.856C78.6295 40.32 83.4917 39.552 88.951 39.552C93.8132 39.552 98.0782 40.2773 101.746 41.728C105.499 43.1787 108.442 45.2693 110.575 48C112.707 50.6453 113.774 53.9307 113.774 57.856V99.84H100.211V60.544C100.211 58.6667 99.8696 57.1307 99.1871 55.936C98.59 54.7413 97.737 53.76 96.6281 52.992C95.5192 52.224 94.197 51.6693 92.6616 51.328C91.1262 50.9867 89.4628 50.816 87.6715 50.816C84.9418 50.816 82.3401 51.1573 79.8664 51.84C77.478 52.4373 75.3881 53.2053 73.5967 54.144C71.8907 54.9973 70.6112 55.7227 69.7582 56.32Z" fill="currentColor"/>
<path d="M165.198 64C165.198 59.648 164.303 56.3627 162.511 54.144C160.72 51.9253 157.948 50.816 154.194 50.816C151.635 50.816 149.375 51.3707 147.413 52.48C145.451 53.504 143.916 55.04 142.807 57.088C141.698 59.0507 141.143 61.3547 141.143 64V99.84H127.325V40.96H141.143V50.048C143.02 46.5493 145.408 43.9467 148.309 42.24C151.294 40.5333 154.834 39.68 158.929 39.68C165.582 39.68 170.658 41.728 174.155 45.824C177.652 49.8347 179.401 55.3813 179.401 62.464V99.84H165.198V64Z" fill="currentColor"/>
<path d="M238.761 0H252.708V99.84H238.761V0ZM190.011 70.4C190.011 63.9147 191.333 58.4107 193.978 53.888C196.622 49.28 200.119 45.7813 204.47 43.392C208.905 40.9173 213.64 39.68 218.672 39.68C223.62 39.68 227.927 40.9173 231.595 43.392C235.349 45.8667 238.292 49.408 240.424 54.016C242.642 58.5387 243.751 64 243.751 70.4C243.751 76.7147 242.642 82.176 240.424 86.784C238.292 91.392 235.349 94.9333 231.595 97.408C227.927 99.8827 223.62 101.12 218.672 101.12C213.64 101.12 208.905 99.9253 204.47 97.536C200.119 95.0613 196.622 91.52 193.978 86.912C191.333 82.304 190.011 76.8 190.011 70.4ZM204.342 70.4C204.342 74.3253 205.152 77.696 206.773 80.512C208.393 83.328 210.526 85.4613 213.17 86.912C215.9 88.3627 218.843 89.088 221.999 89.088C224.643 89.088 227.245 88.3627 229.804 86.912C232.448 85.4613 234.581 83.3707 236.202 80.64C237.908 77.824 238.761 74.4107 238.761 70.4C238.761 66.3893 237.908 63.0187 236.202 60.288C234.581 57.472 232.448 55.3387 229.804 53.888C227.245 52.4373 224.643 51.712 221.999 51.712C218.843 51.712 215.9 52.4373 213.17 53.888C210.526 55.3387 208.393 57.472 206.773 60.288C205.152 63.104 204.342 66.4747 204.342 70.4Z" fill="currentColor"/>
<path d="M266.765 17.536C266.765 15.1467 267.618 13.1413 269.324 11.52C271.116 9.89866 273.163 9.088 275.466 9.088C277.94 9.088 279.987 9.89866 281.608 11.52C283.314 13.1413 284.167 15.1467 284.167 17.536C284.167 19.84 283.314 21.8453 281.608 23.552C279.987 25.1733 277.94 25.984 275.466 25.984C273.163 25.984 271.116 25.1733 269.324 23.552C267.618 21.8453 266.765 19.84 266.765 17.536ZM268.685 40.96H282.247V99.84H268.685V40.96Z" fill="currentColor"/>
<path d="M342.977 128V40.96H356.923V128H342.977ZM294.227 70.4C294.227 63.8293 295.549 58.24 298.193 53.632C300.838 49.024 304.335 45.5253 308.685 43.136C313.121 40.6613 317.855 39.424 322.888 39.424C327.921 39.424 332.271 40.704 335.939 43.264C339.607 45.7387 342.465 49.28 344.512 53.888C346.559 58.496 347.583 64 347.583 70.4C347.583 76.7147 346.559 82.2187 344.512 86.912C342.465 91.52 339.607 95.104 335.939 97.664C332.271 100.139 327.921 101.376 322.888 101.376C317.855 101.376 313.121 100.181 308.685 97.792C304.335 95.3173 300.838 91.776 298.193 87.168C295.549 82.4747 294.227 76.8853 294.227 70.4ZM308.558 70.4C308.558 74.3253 309.368 77.696 310.989 80.512C312.609 83.2427 314.742 85.3333 317.386 86.784C320.116 88.1493 323.059 88.832 326.215 88.832C328.859 88.832 331.461 88.1493 334.02 86.784C336.664 85.3333 338.797 83.2427 340.418 80.512C342.124 77.7813 342.977 74.4107 342.977 70.4C342.977 66.3893 342.124 63.0187 340.418 60.288C338.797 57.5573 336.664 55.5093 334.02 54.144C331.461 52.6933 328.859 51.968 326.215 51.968C323.059 51.968 320.116 52.6933 317.386 54.144C314.742 55.5093 312.609 57.6 310.989 60.416C309.368 63.1467 308.558 66.4747 308.558 70.4Z" fill="currentColor"/>
<path d="M408.324 68.6205C408.324 72.931 404.831 76.4253 400.522 76.4253C396.213 76.4253 392.72 72.931 392.72 68.6205C392.72 64.3099 396.213 60.8156 400.522 60.8156C404.831 60.8156 408.324 64.3099 408.324 68.6205Z" fill="currentColor"/>
<path d="M422.144 46.1658C424.322 48.0976 426.209 50.3326 427.778 52.9002C430.592 57.5078 432 62.8422 432 68.9002C432 74.8725 430.592 80.2074 427.778 84.9002C424.963 89.5082 421.163 93.1351 416.386 95.7804C411.695 98.34 406.323 99.6239 400.267 99.6242C397.302 99.6242 394.491 99.3054 391.833 98.6919L398.372 87.3637C398.991 87.4214 399.623 87.4627 400.267 87.4627C403.508 87.4624 406.448 86.6909 409.092 85.1554C411.822 83.5341 413.955 81.36 415.491 78.6294C417.026 75.8134 417.797 72.5695 417.797 68.9002C417.797 65.2321 417.025 61.9915 415.491 59.1762C415.355 58.9267 415.204 58.6865 415.058 58.4471L422.144 46.1658Z" fill="currentColor"/>
<path d="M400.267 38.1814C403.071 38.1816 405.726 38.4787 408.238 39.046L401.688 50.395C401.221 50.3612 400.748 50.3429 400.267 50.3429C396.94 50.3429 393.951 51.109 391.307 52.645C388.663 54.181 386.574 56.3606 385.038 59.1762C383.504 61.9913 382.737 65.2325 382.737 68.9002C382.737 72.5692 383.503 75.8135 385.038 78.6294C385.096 78.7319 385.161 78.8305 385.221 78.9314L377.999 91.4419C375.932 89.5384 374.132 87.3653 372.626 84.9002C369.898 80.2073 368.534 74.8728 368.534 68.9002C368.534 62.8422 369.897 57.5078 372.626 52.9002C375.441 48.2925 379.241 44.7101 384.018 42.1502C388.794 39.5055 394.211 38.1814 400.267 38.1814Z" fill="currentColor"/>
</svg>
