<svg width="512" height="495" viewBox="0 0 512 495" fill="none" xmlns="http://www.w3.org/2000/svg">
<path d="M321.009 245.236C321.009 279.964 292.828 308.117 258.066 308.117C223.303 308.117 195.123 279.964 195.123 245.236C195.123 210.508 223.303 182.355 258.066 182.355C292.828 182.355 321.009 210.508 321.009 245.236Z" fill="#5B5BF6"/>
<path d="M432.617 64.2379C450.178 79.798 465.287 97.9152 477.937 118.595C500.647 155.72 512 198.688 512 247.5C512 295.624 500.647 338.593 477.937 376.405C455.228 413.53 424.603 442.749 386.065 464.062C348.216 484.686 304.862 495 256.002 495C232.085 495 209.406 492.519 187.962 487.578L240.697 396.327C245.695 396.792 250.797 397.029 256.002 397.029C282.151 397.029 305.893 390.844 327.225 378.47C349.246 365.407 366.452 347.876 378.839 325.876C391.226 303.189 397.421 277.062 397.421 247.5C397.421 217.938 391.226 191.811 378.839 169.124C377.739 167.109 376.6 165.136 375.425 163.204L432.617 64.2379Z" fill="#5B5BF6"/>
<path d="M256.002 0C278.655 0.000112047 300.123 2.29501 320.409 6.87608L267.525 98.3842C263.738 98.1097 259.897 97.9706 256.002 97.9705C229.164 97.9705 205.077 104.156 183.744 116.531C162.411 128.905 145.548 146.437 133.161 169.124C120.774 191.811 114.579 217.938 114.579 247.5C114.579 277.062 120.774 303.189 133.161 325.876C133.635 326.718 134.12 327.55 134.606 328.378L76.317 429.236C59.6206 413.892 45.1906 396.282 33.0315 376.405C11.0103 338.593 0 295.625 0 247.5C2.17901e-05 198.688 11.0102 155.72 33.0315 118.595C55.7413 81.4699 86.3655 52.5937 124.903 31.9687C163.441 10.6564 207.142 0 256.002 0Z" fill="#5B5BF6"/>
</svg>
