<svg width="16" height="16" viewBox="0 0 16 16" fill="none" xmlns="http://www.w3.org/2000/svg">
<path d="M10.0316 7.67114C10.0316 8.75746 9.15095 9.6381 8.06461 9.6381C6.97828 9.6381 6.09764 8.75746 6.09764 7.67114C6.09764 6.58482 6.97828 5.70418 8.06461 5.70418C9.15095 5.70418 10.0316 6.58482 10.0316 7.67114Z" fill="#5B5BF6"/>
<path d="M13.5186 2.00977C14.0674 2.49654 14.5402 3.063 14.9355 3.70996C15.6452 4.87122 16 6.21538 16 7.74219C16 9.24751 15.6452 10.5917 14.9355 11.7744C14.2259 12.9357 13.2688 13.8499 12.0645 14.5166C10.8817 15.1617 9.52679 15.4844 8 15.4844C7.25264 15.4844 6.5441 15.4055 5.87402 15.251L7.52246 12.3945C7.67848 12.4091 7.83752 12.4199 8 12.4199C8.81712 12.4199 9.55897 12.2259 10.2256 11.8389C10.9138 11.4303 11.4518 10.8815 11.8389 10.1934C12.2258 9.48379 12.4189 8.66672 12.4189 7.74219C12.4189 6.81745 12.226 5.99972 11.8389 5.29004C11.8046 5.22718 11.7671 5.16677 11.7305 5.10645L13.5186 2.00977Z" fill="#5B5BF6"/>
<path d="M8 0C8.70794 5.42046e-06 9.37872 0.0725018 10.0127 0.21582L8.35938 3.07812C8.24123 3.06957 8.12147 3.06446 8 3.06445C7.16135 3.06445 6.40882 3.25847 5.74219 3.64551C5.0756 4.03256 4.54822 4.58049 4.16113 5.29004C3.77403 5.99972 3.58008 6.81745 3.58008 7.74219C3.5801 8.66675 3.77414 9.48378 4.16113 10.1934C4.1758 10.2194 4.19197 10.2448 4.20703 10.2705L2.38477 13.4258C1.86327 12.946 1.41205 12.3959 1.03223 11.7744C0.34407 10.5917 2.30323e-05 9.24751 0 7.74219C0 6.21534 0.344082 4.87123 1.03223 3.70996C1.74191 2.54867 2.69901 1.64516 3.90332 1C5.10759 0.333406 6.47319 0 8 0Z" fill="#5B5BF6"/>
</svg>
